<mxfile host="Electron" modified="2024-02-20T02:33:41.990Z" agent="Mozilla/5.0 (Windows NT 10.0; Win64; x64) AppleWebKit/537.36 (KHTML, like Gecko) draw.io/21.6.8 Chrome/114.0.5735.289 Electron/25.5.0 Safari/537.36" etag="58CwU3lDSmKOKNGdRHs1" version="21.6.8" type="device">
  <diagram name="Page-1" id="HYu_96wKDqvbj8-MBEIV">
    <mxGraphModel dx="384" dy="1802" grid="1" gridSize="10" guides="1" tooltips="1" connect="1" arrows="1" fold="1" page="1" pageScale="1" pageWidth="850" pageHeight="1100" math="0" shadow="0">
      <root>
        <mxCell id="0" />
        <mxCell id="1" parent="0" />
        <mxCell id="ZlIEvPK00T60tGaDhaVG-1" value="" style="endArrow=classic;html=1;rounded=0;startArrow=oval;startFill=1;entryX=0.5;entryY=0;entryDx=0;entryDy=0;" edge="1" parent="1" target="ZlIEvPK00T60tGaDhaVG-3">
          <mxGeometry width="50" height="50" relative="1" as="geometry">
            <mxPoint x="550" y="-1000" as="sourcePoint" />
            <mxPoint x="550" y="-940" as="targetPoint" />
          </mxGeometry>
        </mxCell>
        <mxCell id="ZlIEvPK00T60tGaDhaVG-2" value="" style="edgeStyle=orthogonalEdgeStyle;rounded=0;orthogonalLoop=1;jettySize=auto;html=1;" edge="1" parent="1" source="ZlIEvPK00T60tGaDhaVG-3" target="ZlIEvPK00T60tGaDhaVG-5">
          <mxGeometry relative="1" as="geometry" />
        </mxCell>
        <mxCell id="ZlIEvPK00T60tGaDhaVG-3" value="Track order and Manage delivery" style="rounded=1;whiteSpace=wrap;html=1;fillColor=#d5e8d4;strokeColor=#82b366;" vertex="1" parent="1">
          <mxGeometry x="490" y="-940" width="120" height="60" as="geometry" />
        </mxCell>
        <mxCell id="ZlIEvPK00T60tGaDhaVG-4" value="" style="edgeStyle=orthogonalEdgeStyle;rounded=0;orthogonalLoop=1;jettySize=auto;html=1;" edge="1" parent="1" source="ZlIEvPK00T60tGaDhaVG-5" target="ZlIEvPK00T60tGaDhaVG-7">
          <mxGeometry relative="1" as="geometry" />
        </mxCell>
        <mxCell id="ZlIEvPK00T60tGaDhaVG-5" value="Receive order confirmation email" style="rounded=1;whiteSpace=wrap;html=1;" vertex="1" parent="1">
          <mxGeometry x="490" y="-840" width="120" height="60" as="geometry" />
        </mxCell>
        <mxCell id="ZlIEvPK00T60tGaDhaVG-6" value="" style="edgeStyle=orthogonalEdgeStyle;rounded=0;orthogonalLoop=1;jettySize=auto;html=1;" edge="1" parent="1" source="ZlIEvPK00T60tGaDhaVG-7" target="ZlIEvPK00T60tGaDhaVG-9">
          <mxGeometry relative="1" as="geometry" />
        </mxCell>
        <mxCell id="ZlIEvPK00T60tGaDhaVG-7" value="Track order status on account page" style="rounded=1;whiteSpace=wrap;html=1;" vertex="1" parent="1">
          <mxGeometry x="490" y="-730" width="120" height="60" as="geometry" />
        </mxCell>
        <mxCell id="ZlIEvPK00T60tGaDhaVG-8" value="" style="edgeStyle=orthogonalEdgeStyle;rounded=0;orthogonalLoop=1;jettySize=auto;html=1;" edge="1" parent="1" source="ZlIEvPK00T60tGaDhaVG-9" target="ZlIEvPK00T60tGaDhaVG-11">
          <mxGeometry relative="1" as="geometry" />
        </mxCell>
        <mxCell id="ZlIEvPK00T60tGaDhaVG-9" value="Real-time delivery updates" style="rounded=1;whiteSpace=wrap;html=1;" vertex="1" parent="1">
          <mxGeometry x="490" y="-630" width="120" height="60" as="geometry" />
        </mxCell>
        <mxCell id="ZlIEvPK00T60tGaDhaVG-10" value="" style="edgeStyle=orthogonalEdgeStyle;rounded=0;orthogonalLoop=1;jettySize=auto;html=1;" edge="1" parent="1" source="ZlIEvPK00T60tGaDhaVG-11" target="ZlIEvPK00T60tGaDhaVG-13">
          <mxGeometry relative="1" as="geometry" />
        </mxCell>
        <mxCell id="ZlIEvPK00T60tGaDhaVG-11" value="Manage delivery preferences" style="rounded=1;whiteSpace=wrap;html=1;" vertex="1" parent="1">
          <mxGeometry x="490" y="-530" width="120" height="60" as="geometry" />
        </mxCell>
        <mxCell id="ZlIEvPK00T60tGaDhaVG-12" value="" style="edgeStyle=orthogonalEdgeStyle;rounded=0;orthogonalLoop=1;jettySize=auto;html=1;" edge="1" parent="1" source="ZlIEvPK00T60tGaDhaVG-13" target="ZlIEvPK00T60tGaDhaVG-14">
          <mxGeometry relative="1" as="geometry" />
        </mxCell>
        <mxCell id="ZlIEvPK00T60tGaDhaVG-13" value="Contact customer support with delivery-related inquiries" style="rounded=1;whiteSpace=wrap;html=1;" vertex="1" parent="1">
          <mxGeometry x="490" y="-430" width="120" height="60" as="geometry" />
        </mxCell>
        <mxCell id="ZlIEvPK00T60tGaDhaVG-14" value="Close event" style="rounded=1;whiteSpace=wrap;html=1;fillColor=#f8cecc;strokeColor=#b85450;" vertex="1" parent="1">
          <mxGeometry x="490" y="-320" width="120" height="60" as="geometry" />
        </mxCell>
        <mxCell id="ZlIEvPK00T60tGaDhaVG-15" value="" style="endArrow=oval;html=1;rounded=0;exitX=0.5;exitY=1;exitDx=0;exitDy=0;endFill=1;" edge="1" parent="1" source="ZlIEvPK00T60tGaDhaVG-14">
          <mxGeometry width="50" height="50" relative="1" as="geometry">
            <mxPoint x="560" y="-160" as="sourcePoint" />
            <mxPoint x="550" y="-190" as="targetPoint" />
          </mxGeometry>
        </mxCell>
      </root>
    </mxGraphModel>
  </diagram>
</mxfile>
